<svg width="222" height="65" viewBox="0 0 222 65" fill="none" xmlns="http://www.w3.org/2000/svg">
<path fill-rule="evenodd" clip-rule="evenodd" d="M70.005 0.431566C65.0169 2.08088 62.3903 5.30071 62.4086 9.74359C62.43 14.8893 65.0079 17.0331 73.8294 19.2409C79.1961 20.5844 80.535 21.4299 80.535 23.4771C80.535 24.6685 80.3088 25.1482 79.4426 25.7948C77.1178 27.5307 70.0417 26.9344 65.9724 24.6603C63.9608 23.5359 64.0981 23.5664 63.8426 24.1861C63.7323 24.4544 63.1913 25.6778 62.6406 26.9051L61.6395 29.1371L63.3208 30.1223C67.0313 32.2969 74.6328 33.2988 79.5 32.2552C82.1258 31.692 85.3433 29.6839 86.6826 27.7721C88.7839 24.7734 88.5203 19.9636 86.1198 17.5081C84.3207 15.6681 82.5303 14.8729 77.1533 13.5262C74.5376 12.871 71.8957 12.0754 71.2823 11.7579C69.016 10.5864 69.1029 7.99289 71.4578 6.52025C73.3391 5.34401 78.7995 5.5823 82.1781 6.98825L84.6012 7.9964L85.6674 5.27849C86.8901 2.162 86.9813 2.32697 83.265 0.931158C80.7277 -0.0216121 72.3329 -0.337904 70.005 0.431566ZM0 16.257V32.2786H3.51C6.04773 32.2786 7.02507 32.1436 7.03872 31.7911C7.04925 31.5231 7.09332 29.5486 7.13622 27.4036L7.215 23.5036H10.7094H14.2038L17.2618 27.8911L20.3194 32.2786H24.2229C27.2446 32.2786 28.0586 32.1686 27.8273 31.7911C27.6631 31.5231 26.0516 29.205 24.2459 26.6396C22.4406 24.0745 21.1497 21.9135 21.3779 21.8375C22.8762 21.3383 25.4066 18.7869 26.3905 16.7827C28.6049 12.2731 27.431 6.30223 23.758 3.39322C20.5117 0.821954 19.1174 0.535698 9.0675 0.378138L0 0.23578V16.257ZM33.54 16.2886V32.2786H45.825H58.11V29.3536V26.4286H49.53H40.95L40.9496 22.6261V18.8236H48.2621H55.575L55.6897 15.9961L55.8043 13.1686H48.3772H40.95V9.65858V6.14858H49.335H57.72V3.22357V0.298574H45.63H33.54V16.2886ZM93.21 16.2886V32.2786H105.69H118.17V29.3536V26.4286H109.395H100.62V22.7236V19.0186H108.03H115.44V16.0936V13.1686H108.03H100.62V9.65858V6.14858H109.005H117.39V3.22357V0.298574H105.3H93.21V16.2886ZM124.02 16.257V32.2786H127.725H131.43V27.7936V23.3086L134.843 23.3097L138.255 23.3113L141.32 27.7947L144.385 32.2786H148.287H152.19L151.494 31.2061C151.111 30.6164 149.599 28.4164 148.134 26.3174C146.669 24.2188 145.47 22.3367 145.47 22.1351C145.47 21.9334 145.979 21.5056 146.601 21.1839C148.335 20.2869 150.494 17.5128 151.134 15.3573C152.911 9.37232 150.186 3.65842 144.495 1.43776C142.33 0.59302 141.477 0.51386 133.088 0.38009L124.02 0.23578V16.257ZM196.17 16.2886V32.2786H208.65H221.13V29.3536V26.4286H212.355H203.58V22.7236V19.0186H210.99H218.4V16.0936V13.1686H210.99H203.58V9.65858V6.14858H211.965H220.35V3.22357V0.298574H208.26H196.17V16.2886ZM7.20915 6.608C7.09176 6.91415 7.04496 9.43706 7.10541 12.2142L7.215 17.2636L11.115 17.3767C17.0504 17.5487 19.4899 16.3018 20.0827 12.7934C20.4415 10.6679 19.2258 7.99328 17.4868 7.08224C15.7014 6.14663 7.5309 5.76989 7.20915 6.608ZM131.43 11.795V17.5257L135.818 17.3942C140.772 17.2456 142.034 16.8092 143.408 14.7684C145.078 12.2872 144.206 8.6672 141.57 7.13879C140.473 6.5027 139.342 6.3194 135.818 6.20591L131.43 6.06433V11.795ZM15.3028 45.2118C14.671 45.8436 14.6936 46.1364 15.4319 46.8751C16.2731 47.716 17.6459 46.9972 17.4763 45.8046C17.3375 44.8296 16.0395 44.475 15.3028 45.2118ZM86.0765 45.0019C85.9244 45.154 85.8 45.6879 85.8 46.1887C85.8 46.9441 86.0032 47.0986 86.9958 47.0986C88.0706 47.0986 88.1794 46.9898 88.0683 46.0261C87.9474 44.9746 86.7298 44.3487 86.0765 45.0019ZM107.64 54.5086V64.2586H108.615H109.59V54.5086V44.7586H108.615H107.64V54.5086ZM175.509 45.3323C175.087 45.8408 175.117 46.0705 175.69 46.7035C176.579 47.6855 177.95 47.0923 177.766 45.8046C177.618 44.7625 176.224 44.4708 175.509 45.3323ZM123.817 45.9009C120.869 46.608 119.078 49.0111 119.565 51.6062C119.898 53.3788 121.564 54.7383 124.339 55.5015C128.328 56.5982 129.893 57.3006 130.536 58.2822C131.333 59.4986 130.898 60.9241 129.387 62.0488C127.776 63.2485 123.884 63.1252 121.513 61.7996C119.811 60.8488 119.711 60.8359 119.342 61.5255C118.42 63.2473 124.256 65.0596 128.132 64.2551C131.766 63.5008 133.601 60.7018 132.393 57.7565C131.722 56.1212 130.687 55.5015 126.945 54.4945C125.229 54.0324 123.422 53.3986 122.93 53.0859C121.568 52.2212 121.086 50.8714 121.652 49.5068C122.458 47.5611 125.397 46.7484 128.505 47.6114C129.578 47.909 130.718 48.2226 131.04 48.308C131.417 48.4082 131.625 48.1859 131.625 47.6836C131.625 46.223 126.937 45.1525 123.817 45.9009ZM0 55.0936V64.2586H0.975H1.95V60.3586V56.4586H6.63C11.0499 56.4586 11.31 56.4153 11.31 55.6786C11.31 54.9423 11.0499 54.8986 6.65691 54.8986H2.00343L1.87941 51.1928L1.755 47.487L7.1175 47.4878C12.2203 47.4886 12.48 47.4507 12.48 46.7086C12.48 45.9609 12.2199 45.9286 6.24 45.9286H0V55.0936ZM26.7868 50.7661C25.9682 51.0676 24.9588 51.6214 24.5443 51.997C23.8165 52.6553 23.79 52.6428 23.79 51.644C23.79 50.7997 23.6102 50.6086 22.815 50.6086H21.84V57.4336V64.2586H22.815H23.79L23.7959 59.8711C23.7994 57.166 23.9862 55.124 24.2834 54.546C25.8551 51.488 31.0249 51.1273 32.3271 53.9848C32.5673 54.5121 32.76 57.0108 32.76 59.5969V64.2586H33.735H34.71L34.7092 59.4811C34.7088 54.2629 34.2549 52.6818 32.37 51.3297C31.0112 50.3551 28.5706 50.1086 26.7868 50.7661ZM42.315 50.4577C41.0849 50.7537 38.6092 51.873 38.6159 52.1304C38.6194 52.2587 38.7715 52.5995 38.9544 52.8877C39.2305 53.3238 39.4762 53.3152 40.4106 52.8374C44.1363 50.9323 47.97 52.2197 47.97 55.3755V56.4586H45.0528C41.8646 56.4586 39.2215 57.2659 38.5987 58.43C37.9263 59.6862 38.1635 61.8098 39.0975 62.8924C40.7308 64.7863 44.6714 64.9731 47.0925 63.2711C47.9181 62.6908 47.97 62.7017 47.97 63.4564C47.97 64.0601 48.2208 64.2586 48.9832 64.2586H49.9964L49.8596 59.0911C49.7102 53.4568 49.2118 51.9018 47.2707 51.0177C46.1339 50.4994 43.4168 50.1925 42.315 50.4577ZM59.1568 50.7661C58.3382 51.0676 57.3288 51.6214 56.9143 51.997C56.1865 52.6553 56.16 52.6428 56.16 51.644C56.16 50.7997 55.9802 50.6086 55.185 50.6086H54.21V57.4336V64.2586H55.153C56.0933 64.2586 56.0968 64.2438 56.2255 59.3914C56.3488 54.7554 56.403 54.4762 57.3663 53.5141C59.3155 51.5668 63.2167 51.561 64.4892 53.5036C64.9518 54.2091 65.1125 55.6205 65.1542 59.3461C65.2096 64.2547 65.2104 64.2586 66.1448 64.2586H67.08L67.0785 59.2861C67.0773 55.0456 66.9654 54.1303 66.3172 53.0671C64.859 50.6757 61.9441 49.7389 59.1568 50.7661ZM75.176 50.7361C73.0934 51.3894 71.1859 53.355 70.5986 55.4536C69.1384 60.6686 73.992 65.6528 79.172 64.2582C80.7105 63.8436 82.68 62.5075 82.68 61.878C82.68 61.0953 81.4909 61.0969 80.4941 61.8811C79.0308 63.032 75.7805 63.0172 74.3005 61.8531C72.1836 60.1878 71.5459 56.8689 72.9128 54.6271C74.7626 51.5933 78.0289 51.1175 81.2066 53.4193C81.7335 53.8011 81.9807 53.8039 82.352 53.4326C83.3886 52.396 79.9215 50.1613 77.415 50.2506C76.986 50.2662 75.9786 50.4846 75.176 50.7361ZM95.355 50.476C93.733 50.9116 92.04 51.8866 92.04 52.385C92.04 53.2302 92.7377 53.4092 93.6866 52.8074C95.1464 51.8808 97.6201 51.6553 99.1786 52.3066C100.264 52.7598 100.656 53.2095 100.975 54.3682C101.2 55.1833 101.257 55.968 101.1 56.1119C100.943 56.2558 99.2753 56.4492 97.3935 56.5417C93.5244 56.7316 92.095 57.4437 91.5135 59.4706C91.0432 61.1117 92.1005 63.2446 93.7248 63.9302C95.5453 64.6985 98.5476 64.4957 99.8736 63.5152C101.241 62.5047 101.4 62.5009 101.4 63.4786C101.4 63.9985 101.66 64.2586 102.18 64.2586C102.921 64.2586 102.96 64.0004 102.954 59.0911C102.948 53.5753 102.698 52.5777 101.005 51.3211C100.006 50.5805 96.7688 50.0961 95.355 50.476ZM139.33 50.6542C136.453 51.4853 134.211 55.3576 134.804 58.4721C135.564 62.4689 139.219 65.108 143.038 64.4189C145.672 63.9435 147.71 62.5426 147.004 61.692C146.674 61.2946 146.323 61.3523 145.261 61.9786C143.715 62.8905 140.959 63.0149 139.386 62.2435C138.225 61.6748 137.097 60.2681 136.701 58.8961L136.447 58.0186H142.324H148.2V56.8361C148.2 54.2286 146.176 51.5364 143.559 50.6616C142.023 50.148 141.088 50.1464 139.33 50.6542ZM156.048 50.7544C155.324 51.0165 154.402 51.6366 154 52.1331L153.27 53.0352V51.8219C153.27 50.8824 153.1 50.6086 152.516 50.6086C151.553 50.6086 151.484 51.226 151.632 58.5061C151.742 63.9091 151.795 64.2586 152.51 64.2586C153.212 64.2586 153.27 63.9653 153.272 60.4561C153.275 55.576 153.733 53.9107 155.341 52.9299C156.025 52.5126 156.98 52.1709 157.463 52.1701C158.138 52.169 158.34 51.9443 158.34 51.1936C158.34 50.1168 157.994 50.0505 156.048 50.7544ZM185.505 50.7876C182.564 51.8363 180.96 54.0971 180.96 57.1937C180.96 61.7255 183.57 64.3826 188.024 64.3865C190.273 64.3885 192.729 63.3179 193.182 62.1381C193.54 61.2041 192.243 61.0918 190.873 61.9381C188.451 63.4353 185.184 62.8573 183.544 60.6413C182.511 59.2459 182.443 55.8646 183.417 54.3779C185.031 51.9147 188.632 51.1869 190.967 52.8522C192.082 53.6479 193.44 53.711 193.44 52.9673C193.44 52.417 191.923 51.3114 190.443 50.7837C188.563 50.1133 187.394 50.1141 185.505 50.7876ZM199.485 50.6675C197.911 51.2439 196.192 52.8682 195.537 54.3986C194.897 55.8946 194.838 58.7089 195.415 60.2357C196.551 63.243 200.466 65.1057 203.894 64.2695C206.268 63.6904 207.755 62.5254 207.111 61.7489C206.717 61.2743 206.459 61.3074 205.321 61.9786C202.053 63.9068 197.727 62.3312 196.856 58.8961L196.633 58.0186H202.447H208.26V56.615C208.26 52.4143 203.51 49.1944 199.485 50.6675ZM213.14 50.8063C210.749 51.6581 209.725 53.5656 210.567 55.5994C211.167 57.0475 212.055 57.535 215.353 58.2292C216.89 58.5521 218.379 59.0096 218.663 59.2455C219.515 59.9522 219.299 61.8262 218.303 62.3706C217.082 63.0375 213.824 62.9267 211.994 62.1557C210.776 61.6429 210.398 61.6124 210.147 62.0071C209.641 62.805 209.737 62.9326 211.411 63.6876C213.46 64.6115 217.35 64.6369 219.071 63.7372C220.558 62.9599 221.13 62.0227 221.13 60.3656C221.13 58.5143 219.732 57.4897 216.154 56.7211C212.848 56.0109 212.16 55.5928 212.16 54.296C212.16 52.3062 215.016 51.3504 218.113 52.3039C219.853 52.8394 219.996 52.8296 220.361 52.1487C220.704 51.5079 220.51 51.3504 218.724 50.82C216.26 50.0883 215.164 50.0856 213.14 50.8063ZM15.405 57.4336C15.405 64.2512 15.4058 64.2586 16.2825 64.2586C17.1592 64.2586 17.16 64.2512 17.16 57.4336C17.16 50.616 17.1592 50.6086 16.2825 50.6086C15.4058 50.6086 15.405 50.616 15.405 57.4336ZM86.19 57.4336C86.19 63.9985 86.2197 64.2586 86.97 64.2586C87.7204 64.2586 87.75 63.9985 87.75 57.4336C87.75 50.8687 87.7204 50.6086 86.97 50.6086C86.2197 50.6086 86.19 50.8687 86.19 57.4336ZM159.575 50.9436C159.647 51.1281 161.004 54.1993 162.591 57.7686C165.26 63.7703 165.553 64.2586 166.496 64.2586C167.423 64.2586 167.698 63.8428 169.531 59.6761C170.64 57.1559 171.996 54.0847 172.544 52.8511L173.54 50.6086H172.64C171.854 50.6086 171.422 51.3324 169.26 56.2636C167.897 59.3738 166.666 61.9186 166.526 61.9186C166.386 61.9186 165.165 59.3738 163.813 56.2636C161.609 51.1912 161.257 50.6086 160.4 50.6086C159.875 50.6086 159.503 50.7595 159.575 50.9436ZM175.771 57.3361C175.844 63.7949 175.879 64.0687 176.648 64.1884C177.432 64.3101 177.45 64.1548 177.45 57.4609C177.45 50.6148 177.449 50.6086 176.573 50.6086H175.695L175.771 57.3361ZM139.23 52.4619C137.982 53.0851 136.113 55.8112 136.599 56.2979C136.701 56.3997 139.002 56.4332 141.712 56.3732L146.64 56.2636L145.835 54.6385C145.24 53.4365 144.629 52.853 143.487 52.396C141.528 51.6121 140.912 51.6214 139.23 52.4619ZM199.335 52.4256C198.487 52.8569 197.762 53.6619 197.306 54.6802L196.596 56.2636L201.506 56.3732C204.206 56.4332 206.49 56.4087 206.581 56.3178C206.957 55.9414 205.521 53.3507 204.603 52.7489C203.122 51.779 200.878 51.6413 199.335 52.4256ZM40.56 58.7986C39.5051 59.8535 39.5792 60.9732 40.7843 62.1783C41.6629 63.057 42.0303 63.1588 43.7272 62.9958C46.2189 62.7563 47.97 61.2357 47.97 59.3106V58.0186H44.655C41.8599 58.0186 41.2175 58.141 40.56 58.7986ZM94.077 58.6258C93.5232 59.0135 93.21 59.6375 93.21 60.3523C93.21 63.2563 98.0554 64.0897 100.305 61.5727C100.987 60.809 101.4 59.907 101.4 59.1823V58.0186H98.172C95.8811 58.0186 94.6916 58.1949 94.077 58.6258Z" fill="white"/>
<path d="M154.051 0.298828H167.311L179.401 21.3588L172.771 32.2788L154.051 0.298828Z" fill="#FBF705"/>
<path d="M180.952 2.35296L178.23 0.298828H184.665H191.49L184.08 12.7788V8.48883V4.58883L180.952 2.35296Z" fill="#FBF705"/>
</svg>
